<?xml version="1.0" encoding="UTF-8" standalone="no"?>
<svg
   xmlns:inkpad="http://taptrix.com/inkpad/svg_extensions"
   xmlns:dc="http://purl.org/dc/elements/1.1/"
   xmlns:cc="http://creativecommons.org/ns#"
   xmlns:rdf="http://www.w3.org/1999/02/22-rdf-syntax-ns#"
   xmlns:svg="http://www.w3.org/2000/svg"
   xmlns="http://www.w3.org/2000/svg"
   height="100"
   width="300"
   xml:space="preserve"
   viewBox="-73.1 142.5 299.99999 100"
   y="0px"
   x="0px"
   id="Layer_1"
   version="1.1"><metadata
     id="metadata18"><rdf:RDF><cc:Work
         rdf:about=""><dc:format>image/svg+xml</dc:format><dc:type
           rdf:resource="http://purl.org/dc/dcmitype/StillImage" /><dc:title></dc:title></cc:Work></rdf:RDF></metadata><defs
     id="defs16" /><style
     id="style3"
     type="text/css">
	.st0{fill:#323231;}
</style><g
     transform="matrix(-0.3610555,0,0,0.3610555,176.38339,1.8600046)"
     inkpad:layerName="Layer 3"
     id="Layer"><path
       style="fill:#8a8181"
       id="path6"
       d="m 562.8,599.5 c 0,0 -31,21.9 -78.3,22.2 -27.6,0.2 -84.7,-9.1 -123.7,-25.1 -47.7,-19.6 -219.4,-93.4 -304,-67 -15.8,5 -38.8,18.8 -48.6,30.9 -2.8,3.4 6.3,-1.7 9.1,-2.9 10.4,-4.5 28.1,-15.1 40.5,-17.3 88.6,-15.2 214.9,43 300.2,77.4 36.1,14.6 96.5,19.4 126.3,17.1 61.9,-4.9 78.5,-35.3 78.5,-35.3 z"
       class="st0" /><path
       style="fill:#8a8181"
       id="path8"
       d="m 562.9,481.4 c -37,53.5 -100.7,37.5 -157,21.5 C 356.3,488.7 302.2,452.4 250,442.4 195,431.8 111,422.8 52.9,449.2 c -12.7,5.8 91.3,-23.4 189.3,10.7 56,19.5 66.4,37.1 156.2,57 32.1,7.1 137.3,28.6 174.3,-34.8 8.6,-14.4 -3.5,-9.8 -9.8,-0.7 z"
       class="st0" /><path
       style="fill:#8a8181"
       id="path10"
       d="M 628.50938,502.16338 C 576.60038,575.34343 437.36369,563.55399 392.5,545.1 c -47.7,-19.6 -99.2,-42 -151.4,-52 -27.2,-5.2 -143.1,-25 -216.6,-6.3 -75,19.1 -108.6,77.8 -87,131.3 18.5,45.9 99.8,45.3 140.7,21.7 6.2,-3.6 7.8,-16.9 -4.3,-8 -32.8,24 -113.8,37 -129.2,-18.9 -46,-167.3 240.3,-123.7 293.4,-104.7 79.2,28.3 73.5,36 151.4,57.5 61.78638,17.07464 197.67324,19.60548 250.27087,-56.63625 35.75079,-51.82177 20.83432,-106.36743 12.96757,-108.81132 -3.74023,-1.16194 21.02159,38.11768 -24.22906,101.91095 z"
       class="st0" /></g></svg>
